# File created by Blade
# Date/Time:  Thu Jan 22 19:29:47 2015
#---------------------------------------------------------
:version 1.10
:name HOM
:units
  mass 1.0
  length 1.000000
  angle deg
:documentation
     Acclaim Skeleton File
:root
   axis xyz
   order TX TY TZ RX RY RZ
   position 0.000000 0.000000 0.000000
   orientation 0 0 0
:bonedata
   begin
      id 1
      name RightUpLeg_dum
      direction -1.000000 0.000000 0.000000
      length 4.478084
      axis 0.0 0.0 0.0 xyz
   end
   begin
      id 2
      name LeftUpLeg_dum
      direction 1.000000 0.000000 0.000000
      length 4.478084
      axis 0.0 0.0 0.0 xyz
   end
   begin
      id 3
      name Spine_dum
      direction 0.000000 1.000000 0.000000
      length 6.068208
      axis 0.0 0.0 0.0 xyz
   end
   begin
      id 4
      name RightUpLeg
      direction 0.000000 -1.000000 0.000000
      length 16.405774
      axis 0.0 0.0 0.0 xyz
      dof rx ry rz
   end
   begin
      id 5
      name RightLeg
      direction 0.000000 -1.000000 0.000000
      length 14.644143
      axis 0.0 0.0 0.0 xyz
      dof rx ry rz
   end
   begin
      id 6
      name RightFoot
      direction 0.000000 -0.258819 0.965926
      length 5.806150
      axis 15.0 0.0 0.0 xyz
      dof rx ry rz
   end
   begin
      id 7
      name RightToeBase
      direction 0.000000 0.000000 1.000000
      length 2.952750
      axis 0.0 0.0 0.0 xyz
      dof rx ry rz
   end
   begin
      id 8
      name LeftUpLeg
      direction 0.000000 -1.000000 0.000000
      length 16.405774
      axis 0.0 0.0 0.0 xyz
      dof rx ry rz
   end
   begin
      id 9
      name LeftLeg
      direction 0.000000 -1.000000 0.000000
      length 14.644143
      axis 0.0 0.0 0.0 xyz
      dof rx ry rz
   end
   begin
      id 10
      name LeftFoot
      direction 0.000000 -0.258819 0.965926
      length 5.806150
      axis 15.0 0.0 0.0 xyz
      dof rx ry rz
   end
   begin
      id 11
      name LeftToeBase
      direction 0.000000 0.000000 1.000000
      length 2.952750
      axis 0.0 0.0 0.0 xyz
      dof rx ry rz
   end
   begin
      id 12
      name Spine
      direction 0.000000 1.000000 0.000000
      length 0.000000
      axis 0.0 0.0 0.0 xyz
      dof rx ry rz
   end
   begin
      id 13
      name Spine_dum1
      direction 0.000000 1.000000 0.000000
      length 10.013923
      axis 0.0 0.0 0.0 xyz
   end
   begin
      id 14
      name Spine_dum2
      direction 0.000000 1.000000 0.000000
      length 10.013923
      axis 0.0 0.0 0.0 xyz
   end
   begin
      id 15
      name Spine_dum3
      direction 0.000000 1.000000 0.000000
      length 15.777476
      axis 0.0 0.0 0.0 xyz
   end
   begin
      id 16
      name RightShoulder
      direction -1.000000 0.000000 0.000000
      length 7.190220
      axis 0.0 0.0 90.0 xyz
      dof rx ry rz
   end
   begin
      id 17
      name RightArm
      direction -1.000000 0.000000 0.000000
      length 10.177469
      axis 0.0 0.0 90.0 xyz
      dof rx ry rz
   end
   begin
      id 18
      name RightForeArm
      direction -1.000000 0.000000 0.000000
      length 8.392114
      axis 0.0 0.0 90.0 xyz
      dof ry rz rx
   end
   begin
      id 19
      name RightHand
      direction -1.000000 0.000000 0.000000
      length 0.000000
      axis 0.0 0.0 90.0 xyz
      dof rx ry rz
   end
   begin
      id 20
      name RightHand_dum1
      direction -1.000000 0.000000 0.000000
      length 3.937000
      axis 0.0 0.0 90.0 xyz
   end
   begin
      id 21
      name RightHand_dum2
      direction 0.000000 0.000000 0.000000
      length 0.000000
      axis 0.0 0.0 90.0 xyz
   end
   begin
      id 22
      name RightHandThumb1
      direction 0.000000 0.000000 1.000000
      length 3.937000
      axis 0.0 0.0 90.0 xyz
      dof rx rz ry
   end
   begin
      id 23
      name LeftShoulder
      direction 1.000000 0.000000 0.000000
      length 7.190220
      axis 0.0 0.0 -90.0 xyz
      dof rx ry rz
   end
   begin
      id 24
      name LeftArm
      direction 1.000000 0.000000 0.000000
      length 10.177469
      axis 0.0 0.0 -90.0 xyz
      dof rx ry rz
   end
   begin
      id 25
      name LeftForeArm
      direction 1.000000 0.000000 0.000000
      length 8.392114
      axis 0.0 0.0 -90.0 xyz
      dof ry rz rx
   end
   begin
      id 26
      name LeftHand
      direction 1.000000 0.000000 0.000000
      length 0.000000
      axis 0.0 0.0 -90.0 xyz
      dof rx ry rz
   end
   begin
      id 27
      name LeftHand_dum1
      direction 1.000000 0.000000 0.000000
      length 3.937000
      axis 0.0 0.0 -90.0 xyz
   end
   begin
      id 28
      name LeftHand_dum2
      direction 0.000000 0.000000 0.000000
      length 0.000000
      axis 0.0 0.0 -90.0 xyz
   end
   begin
      id 29
      name LeftHandThumb1
      direction 0.000000 0.000000 1.000000
      length 3.937000
      axis 0.0 0.0 -90.0 xyz
      dof rx rz ry
   end
   begin
      id 30
      name Head
      direction 0.000000 1.000000 0.000000
      length 4.527550
      axis 0.0 0.0 0.0 xyz
      dof rx ry rz
   end
:hierarchy
   begin
      root RightUpLeg_dum LeftUpLeg_dum Spine_dum
      RightUpLeg_dum RightUpLeg
      LeftUpLeg_dum LeftUpLeg
      Spine_dum Spine
      RightUpLeg RightLeg
      RightLeg RightFoot
      RightFoot RightToeBase
      LeftUpLeg LeftLeg
      LeftLeg LeftFoot
      LeftFoot LeftToeBase
      Spine Spine_dum1 Spine_dum2 Spine_dum3
      Spine_dum1 RightShoulder
      Spine_dum2 LeftShoulder
      Spine_dum3 Head
      RightShoulder RightArm
      RightArm RightForeArm
      RightForeArm RightHand
      RightHand RightHand_dum1 RightHand_dum2
      RightHand_dum2 RightHandThumb1
      LeftShoulder LeftArm
      LeftArm LeftForeArm
      LeftForeArm LeftHand
      LeftHand LeftHand_dum1 LeftHand_dum2
      LeftHand_dum2 LeftHandThumb1
   end

# File created by Blade
# Date/Time:  Thu Jan 22 19:29:39 2015
# Frame Rate: 120.000 fps
#------------------------------------------------------
:FULLY-SPECIFIED
:DEGREES
262
root -3.793696 33.028882 0.450382 7.398394 -9.659359 1.962305
RightUpLeg -3.344103 -1.072393 1.176079
RightLeg 2.070466 -0.000000 -0.000000
RightFoot -12.107384 -3.690900 1.308551
RightToeBase 4.851215 -0.000000 -0.000000
LeftUpLeg -3.091105 6.215238 2.644109
LeftLeg 6.294294 -0.000000 -0.000000
LeftFoot -14.189265 4.157650 -18.025768
LeftToeBase 8.497842 -0.000000 -0.000000
Spine -9.461326 -6.373827 -0.121581
RightShoulder -19.348383 -23.106445 -12.649235
RightArm 16.002682 -12.612995 81.058657
RightForeArm -3.796892 -0.000000 30.014691
RightHand 14.706929 0.000000 -6.358431
RightHandThumb1 -24.326973 -0.000000 -32.862282
LeftShoulder -21.323322 1.072404 21.325419
LeftArm 21.465828 -25.139087 -92.696518
LeftForeArm 41.883617 -0.000000 119.348351
LeftHand -19.910755 0.000000 17.621206
LeftHandThumb1 -26.253704 0.000000 33.147579
Head 13.389448 25.105731 -1.079616
263
root -3.810676 33.027271 0.451862 7.393747 -9.726704 1.949284
RightUpLeg -3.346937 -0.975625 1.206249
RightLeg 2.090301 -0.000000 -0.000000
RightFoot -12.107803 -3.716456 1.258565
RightToeBase 4.858849 -0.000000 -0.000000
LeftUpLeg -3.107618 6.187138 2.674221
LeftLeg 6.382473 -0.000000 -0.000000
LeftFoot -14.257122 4.245846 -18.044778
LeftToeBase 8.452107 -0.000000 -0.000000
Spine -9.450780 -6.433135 -0.066919
RightShoulder -19.324970 -23.127737 -12.690957
RightArm 16.054379 -12.802466 80.888571
RightForeArm -3.842102 -0.000000 29.923426
RightHand 14.595261 -0.000000 -6.009716
RightHandThumb1 -24.326973 -0.000000 -32.862282
LeftShoulder -21.198000 0.896805 21.476756
LeftArm 21.744134 -24.890573 -92.619212
LeftForeArm 41.325977 0.000000 118.386728
LeftHand -19.757860 -0.000000 17.972191
LeftHandThumb1 -26.253704 0.000000 33.147579
Head 13.476402 25.397634 -1.095310
264
root -3.826481 33.025263 0.457954 7.358383 -9.800858 1.931754
RightUpLeg -3.397592 -1.292709 1.272062
RightLeg 2.283959 -0.000000 -0.000000
RightFoot -12.188367 -3.422144 1.083604
RightToeBase 4.834665 -0.000000 -0.000000
LeftUpLeg -3.088348 5.974514 2.724932
LeftLeg 6.523329 -0.000000 -0.000000
LeftFoot -14.404286 4.421671 -18.087832
LeftToeBase 8.445893 -0.000000 -0.000000
Spine -9.417451 -6.468116 -0.012719
RightShoulder -19.300451 -23.172590 -12.728673
RightArm 16.116193 -12.940571 80.732937
RightForeArm -3.929536 -0.000000 29.835393
RightHand 14.395516 -0.000000 -5.752067
RightHandThumb1 -24.326973 -0.000000 -32.862282
LeftShoulder -21.094225 0.789056 21.599347
LeftArm 22.149150 -24.563503 -92.581354
LeftForeArm 40.596281 -0.000000 117.358151
LeftHand -19.483894 0.000000 18.732892
LeftHandThumb1 -26.253704 0.000000 33.147579
Head 13.614371 25.652714 -1.084557
265
root -3.839903 33.024297 0.459318 7.360303 -9.853575 1.931477
RightUpLeg -3.443229 -1.411295 1.297436
RightLeg 2.370933 -0.000000 -0.000000
RightFoot -12.218301 -3.263734 1.009513
RightToeBase 4.798649 -0.000000 -0.000000
LeftUpLeg -3.093351 6.117662 2.728089
LeftLeg 6.538559 -0.000000 -0.000000
LeftFoot -14.385187 4.419199 -17.997859
LeftToeBase 8.407146 -0.000000 -0.000000
Spine -9.414268 -6.514329 0.021407
RightShoulder -19.278586 -23.192352 -12.749856
RightArm 16.169697 -13.110178 80.562992
RightForeArm -3.902901 -0.000000 29.699496
RightHand 14.410129 0.000000 -5.724243
RightHandThumb1 -24.326973 -0.000000 -32.862282
LeftShoulder -20.938608 0.580028 21.761608
LeftArm 22.373592 -24.256632 -92.433869
LeftForeArm 40.118602 -0.000000 116.285866
LeftHand -19.480110 -0.000000 19.538749
LeftHandThumb1 -26.253704 0.000000 33.147579
Head 13.718679 25.883350 -1.079910
266
root -3.858406 33.022476 0.456026 7.394454 -9.907709 1.908917
RightUpLeg -3.297434 -0.402401 1.287868
RightLeg 2.006547 -0.000000 -0.000000
RightFoot -12.067656 -4.090418 1.279049
RightToeBase 4.897269 -0.000000 -0.000000
LeftUpLeg -3.147317 6.227814 2.769345
LeftLeg 6.602846 -0.000000 -0.000000
LeftFoot -14.414818 4.401435 -17.919272
LeftToeBase 8.470634 -0.000000 -0.000000
Spine -9.429028 -6.544653 0.052243
RightShoulder -19.284077 -23.191918 -12.756371
RightArm 16.195991 -13.252263 80.404150
RightForeArm -3.848283 -0.000000 29.634244
RightHand 14.190481 -0.000000 -5.493526
RightHandThumb1 -24.326973 -0.000000 -32.862282
LeftShoulder -20.821585 0.476769 21.942789
LeftArm 22.810570 -23.931350 -92.506420
LeftForeArm 39.937119 -0.000000 115.087331
LeftHand -19.368770 -0.000000 20.250902
LeftHandThumb1 -26.253704 0.000000 33.147579
Head 13.815250 26.095982 -1.017487
267
root -3.876385 33.020158 0.459331 7.398875 -10.012657 1.885509
RightUpLeg -3.288492 -0.193794 1.321030
RightLeg 1.983522 -0.000000 -0.000000
RightFoot -12.054976 -4.169344 1.293422
RightToeBase 4.879418 -0.000000 -0.000000
LeftUpLeg -3.132655 6.315392 2.810129
LeftLeg 6.628762 -0.000000 -0.000000
LeftFoot -14.431112 4.342228 -18.084100
LeftToeBase 8.349332 -0.000000 -0.000000
Spine -9.413048 -6.535048 0.094244
RightShoulder -19.297340 -23.180955 -12.791982
RightArm 16.207143 -13.315091 80.305439
RightForeArm -3.924268 -0.000000 29.548726
RightHand 14.001192 -0.000000 -5.170278
RightHandThumb1 -24.326973 -0.000000 -32.862282
LeftShoulder -20.695129 0.249698 22.135149
LeftArm 23.002313 -23.667773 -92.371922
LeftForeArm 39.533823 0.000000 113.880026
LeftHand -19.083909 -0.000000 21.053884
LeftHandThumb1 -26.253704 0.000000 33.147579
Head 13.900051 26.340690 -1.013201
268
root -3.887405 33.019063 0.457463 7.413366 -10.002775 1.879329
RightUpLeg -3.311974 -0.241893 1.343273
RightLeg 2.002606 -0.000000 -0.000000
RightFoot -12.046271 -4.110865 1.209468
RightToeBase 4.842565 -0.000000 -0.000000
LeftUpLeg -3.189443 6.250389 2.833501
LeftLeg 6.723030 -0.000000 -0.000000
LeftFoot -14.509017 4.455931 -18.025807
LeftToeBase 8.438078 -0.000000 -0.000000
Spine -9.385020 -6.645230 0.154061
RightShoulder -19.299967 -23.188344 -12.817932
RightArm 16.256535 -13.358049 80.186625
RightForeArm -3.967365 -0.000000 29.480967
RightHand 13.870007 -0.000000 -4.982777
RightHandThumb1 -24.326973 -0.000000 -32.862282
LeftShoulder -20.611583 0.084459 22.286880
LeftArm 23.287925 -23.387139 -92.255780
LeftForeArm 39.039282 0.000000 112.630058
LeftHand -18.992070 -0.000000 21.896861
LeftHandThumb1 -26.253704 0.000000 33.147579
Head 13.938132 26.580016 -1.063698
